<svg
  width="22"
  height="22"
  viewBox="0 0 22 22"
  fill="white"
  xmlns="http://www.w3.org/2000/svg"
>
<rect width="22" height="22" fill="#1E1E1E" />
<g id="input">
<path
      d="M-76 -43C-76 -44.1046 -75.1046 -45 -74 -45H820C821.105 -45 822 -44.1046 822 -43V279C822 280.105 821.105 281 820 281H-74C-75.1046 281 -76 280.105 -76 279V-43Z"
      fill="#404040"
    />
<g id="login">
<rect
        id="Rectangle 68"
        x="-16.5"
        y="-10.5"
        width="254"
        height="44"
        rx="9.5"
        stroke="black"
      />
<g id="fluent:mail-16-filled">
<path
          id="Vector"
          d="M5.5 4.125C4.77065 4.125 4.07118 4.41473 3.55546 4.93046C3.03973 5.44618 2.75 6.14565 2.75 6.875V7.15138L11 11.594L19.25 7.15275V6.875C19.25 6.14565 18.9603 5.44618 18.4445 4.93046C17.9288 4.41473 17.2293 4.125 16.5 4.125H5.5ZM19.25 8.71338L11.3259 12.98C11.2257 13.0339 11.1137 13.0621 11 13.0621C10.8863 13.0621 10.7743 13.0339 10.6741 12.98L2.75 8.71338V15.125C2.75 15.8543 3.03973 16.5538 3.55546 17.0695C4.07118 17.5853 4.77065 17.875 5.5 17.875H16.5C17.2293 17.875 17.9288 17.5853 18.4445 17.0695C18.9603 16.5538 19.25 15.8543 19.25 15.125V8.71338Z"
          fill="black"
        />
</g>
</g>
<path
      d="M-74 -44H820V-46H-74V-44ZM821 -43V279H823V-43H821ZM820 280H-74V282H820V280ZM-75 279V-43H-77V279H-75ZM-74 280C-74.5523 280 -75 279.552 -75 279H-77C-77 280.657 -75.6568 282 -74 282V280ZM821 279C821 279.552 820.552 280 820 280V282C821.657 282 823 280.657 823 279H821ZM820 -44C820.552 -44 821 -43.5523 821 -43H823C823 -44.6569 821.657 -46 820 -46V-44ZM-74 -46C-75.6569 -46 -77 -44.6568 -77 -43H-75C-75 -43.5523 -74.5523 -44 -74 -44V-46Z"
      fill="white"
      fill-opacity="0.1"
    />
</g>
</svg>
