<svg width="20" height="17" viewBox="0 0 20 17" fill="none" xmlns="http://www.w3.org/2000/svg">
<g id="&#240;&#159;&#166;&#134; icon &#34;eye slash&#34;">
<g id="Group">
<path id="Vector" d="M12.2768 6.60253L7.72283 10.3975C7.13783 9.91 6.77783 9.2425 6.77783 8.5C6.77783 7.015 8.2178 5.81503 9.9998 5.81503C10.8908 5.81503 11.6918 6.11503 12.2768 6.60253Z" stroke="#292D32" stroke-width="2" stroke-linecap="round" stroke-linejoin="round"/>
<path id="Vector_2" d="M15.2381 3.82749C13.6631 2.83749 11.8631 2.29749 10.0001 2.29749C6.8231 2.29749 3.8621 3.85749 1.8011 6.55749C0.991104 7.615 0.991104 9.3925 1.8011 10.45C2.5121 11.38 3.3401 12.1825 4.2401 12.8275" stroke="#292D32" stroke-width="2" stroke-linecap="round" stroke-linejoin="round"/>
<path id="Vector_3" d="M6.77783 14.1476C7.80383 14.5076 8.8928 14.7026 9.9998 14.7026C13.1768 14.7026 16.1378 13.1426 18.1988 10.4426C19.0088 9.38508 19.0088 7.60758 18.1988 6.55004C17.9018 6.16004 17.5778 5.79254 17.2448 5.44754" stroke="#292D32" stroke-width="2" stroke-linecap="round" stroke-linejoin="round"/>
<path id="Vector_4" d="M13.1591 9.02501C12.9251 10.0825 11.8901 10.945 10.6211 11.14" stroke="#292D32" stroke-width="2" stroke-linecap="round" stroke-linejoin="round"/>
<path id="Vector_5" d="M7.723 10.3975L1 16" stroke="#292D32" stroke-width="2" stroke-linecap="round" stroke-linejoin="round"/>
<path id="Vector_6" d="M18.9999 1L12.2769 6.6025" stroke="#292D32" stroke-width="2" stroke-linecap="round" stroke-linejoin="round"/>
</g>
</g>
</svg>
