<svg width="22" height="17" viewBox="0 0 22 17" fill="none" xmlns="http://www.w3.org/2000/svg">
<g id="&#240;&#159;&#166;&#134; icon &#34;eye&#34;">
<g id="Group">
<path id="Vector" d="M14.4827 8.50456C14.4827 10.2991 12.9245 11.7493 10.9962 11.7493C9.06793 11.7493 7.50977 10.2991 7.50977 8.50456C7.50977 6.71 9.06793 5.25989 10.9962 5.25989C12.9245 5.25989 14.4827 6.71 14.4827 8.50456Z" stroke="#292D32" stroke-width="1.44425" stroke-linecap="round" stroke-linejoin="round"/>
<path id="Vector_2" d="M10.9962 16C14.434 16 17.638 14.1148 19.8682 10.852C20.7447 9.57403 20.7447 7.426 19.8682 6.14803C17.638 2.88519 14.434 1 10.9962 1C7.55838 1 4.35434 2.88519 2.12416 6.14803C1.24767 7.426 1.24767 9.57403 2.12416 10.852C4.35434 14.1148 7.55838 16 10.9962 16Z" stroke="#292D32" stroke-width="1.44425" stroke-linecap="round" stroke-linejoin="round"/>
</g>
</g>
</svg>
