<svg width="18" height="21" viewBox="0 0 18 21" fill="none" xmlns="http://www.w3.org/2000/svg">
<path d="M2.71396 20.7059C2.12298 20.7059 1.61689 20.5126 1.19568 20.1261C0.774472 19.7396 0.564227 19.2755 0.564943 18.7339V8.87395C0.564943 8.33165 0.775547 7.86725 1.19675 7.48074C1.61796 7.09423 2.1237 6.9013 2.71396 6.90196H3.78847V4.92997C3.78847 3.56601 4.31247 2.4032 5.36048 1.44152C6.40848 0.479851 7.67533 -0.000656656 9.16102 6.73494e-07C10.6474 6.73494e-07 11.9146 0.480837 12.9626 1.44251C14.0106 2.40418 14.5343 3.56667 14.5336 4.92997V6.90196H15.6081C16.1991 6.90196 16.7052 7.09522 17.1264 7.48173C17.5476 7.86824 17.7578 8.33231 17.7571 8.87395V18.7339C17.7571 19.2762 17.5465 19.7406 17.1253 20.1271C16.7041 20.5136 16.1983 20.7065 15.6081 20.7059H2.71396ZM9.16102 15.7759C9.752 15.7759 10.2581 15.5827 10.6793 15.1961C11.1005 14.8096 11.3108 14.3456 11.31 13.8039C11.31 13.2616 11.0994 12.7972 10.6782 12.4107C10.257 12.0242 9.75128 11.8313 9.16102 11.8319C8.57004 11.8319 8.06395 12.0252 7.64274 12.4117C7.22153 12.7982 7.01128 13.2623 7.012 13.8039C7.012 14.3462 7.2226 14.8106 7.64381 15.1971C8.06502 15.5836 8.57076 15.7766 9.16102 15.7759ZM5.93749 6.90196H12.3845V4.92997C12.3845 4.10831 12.0711 3.4099 11.4444 2.83473C10.8176 2.25957 10.0564 1.97199 9.16102 1.97199C8.26559 1.97199 7.50448 2.25957 6.87769 2.83473C6.25089 3.4099 5.93749 4.10831 5.93749 4.92997V6.90196Z" fill="black"/>
</svg>
