<svg
  width="390"
  height="143"
  viewBox="0 0 390 143"
  fill="none"
  xmlns="http://www.w3.org/2000/svg"
>
<path
    fill-rule="evenodd"
    clip-rule="evenodd"
    d="M0 5.65504L16.25 2.79368C32.5 -0.0676689 65 -5.79037 97.5 17.1005C130 39.9913 162.5 91.4956 195 111.525C227.5 131.555 260 120.109 292.5 105.802C325 91.4956 357.5 74.3275 373.75 65.7435L390 57.1594V143H373.75C357.5 143 325 143 292.5 143C260 143 227.5 143 195 143C162.5 143 130 143 97.5 143C65 143 32.5 143 16.25 143H0V5.65504Z"
    fill="white"
  />
</svg>
